HIERARCHY
ROOT hip
{
  OFFSET 0.0 0.0 0.0
  CHANNELS 6 Xposition Yposition Zposition Zrotation Yrotation Xrotation
  JOINT torso
  {
    OFFSET 0.0 0.0 0.0
    CHANNELS 3 Zrotation Xrotation Yrotation
    JOINT neck
    {
      OFFSET -31.42098999999993 328.8025209999999 74.3554680000002
      CHANNELS 3 Zrotation Xrotation Yrotation
      JOINT head
      {
        OFFSET 3.3519900000001144 303.81732099999994 206.53942900000015
        CHANNELS 3 Zrotation Xrotation Yrotation
        End Site
        {
          OFFSET 0.0 0.0 0.0
        }
      }
    }
    JOINT left_collar
    {
      OFFSET -31.42098999999993 328.8025209999999 74.3554680000002
      CHANNELS 3 Zrotation Xrotation Yrotation
      JOINT left_upper_arm
      {
        OFFSET -124.490479 -8.162841999999841 8.226441000000023
        CHANNELS 3 Zrotation Xrotation Yrotation
        JOINT left_forearm
        {
          OFFSET -253.595764 -1.5758060000000569 105.0729980000001
          CHANNELS 3 Zrotation Xrotation Yrotation
          JOINT left_hand
          {
            OFFSET -269.48803699999996 0.1478270000000066 -55.346191999999974
            CHANNELS 3 Zrotation Xrotation Yrotation
            End Site
            {
              OFFSET 0.0 0.0 0.0
            }
          }
        }
      }
    }
    JOINT right_collar
    {
      OFFSET -31.42098999999993 328.8025209999999 74.3554680000002
      CHANNELS 3 Zrotation Xrotation Yrotation
      JOINT right_upper_arm
      {
        OFFSET 162.02484099999998 0.46441600000002836 2.2303470000001653
        CHANNELS 3 Zrotation Xrotation Yrotation
        JOINT right_forearm
        {
          OFFSET 240.01246700000004 -25.835875999999985 121.34179699999959
          CHANNELS 3 Zrotation Xrotation Yrotation
          JOINT right_hand
          {
            OFFSET 252.48539699999992 18.910399999999868 -67.53466800000001
            CHANNELS 3 Zrotation Xrotation Yrotation
            End Site
            {
              OFFSET 0.0 0.0 0.0
            }
          }
        }
      }
    }
  }
}
MOTION
Frames: 13
Frame Time: 0.01
256.5472410000003 192.72505199999958 1764.783691 -9.342028230170056 -36.840085593248055 12.044894646869587 1.3441437831863607 -2.527923302501743 -0.5730280019884177 3.025080255699859 16.29082097025686 -1.9985441390360672 0.0 0.0 0.0 2.8837210727425235 0.5697115221019995 -4.150821298435337 22.74616712862924 29.932969127388038 -59.9944725582779 7.281313653431922 -0.9339061739980251 -8.68507430497535 0.0 0.0 0.0 -11.989822015299227 -0.9487965390380049 -10.892382858319765 -12.667090402024202 24.433340015347557 51.37384442268015 -0.2971427223398687 -1.099218837569669 14.547306068929284 0.0 0.0 0.0
256.60705600000034 192.60565199999957 1764.756226 -9.319443341077836 -36.88215834335542 12.04316292990847 1.301143057747265 -2.525882886234359 -0.5621597782981421 3.034060662585509 16.241077216981008 -2.0040818145025354 0.0 0.0 0.0 2.8735411079344138 0.5735443405927727 -4.204200402359392 22.76968364404105 29.925987201260494 -59.92378853242846 7.225482824045825 -0.9253127458114025 -8.707867684632374 0.0 0.0 0.0 -11.977052793739908 -0.9450961411642786 -10.866579355853123 -12.688078575042269 24.4394231959338 51.332495656841786 -0.30849517070921106 -1.1026972034591649 14.575832241286415 0.0 0.0 0.0
256.68020600000034 192.51251199999956 1764.702271 -9.379284629944253 -36.922598038185505 11.998787212402405 1.3459324584546046 -2.626202234421787 -0.5838688191981438 3.010716491037585 16.424504505286027 -1.9894868017468428 0.0 0.0 0.0 3.3466281985336614 0.5926076247192626 -3.8909309249122614 22.42374208177029 29.66632945568186 -60.27139809540651 7.323254904830379 -0.9379162663134757 -8.70610639899846 0.0 0.0 0.0 -12.150988134470662 -0.9577733214400639 -10.851207042498382 -12.575385604124484 24.333712048009883 51.41373663393713 -0.24854833182829564 -1.1002935588931204 14.657701406709357 0.0 0.0 0.0
256.76980600000036 192.39387499999958 1764.657959 -9.397684274897873 -36.942787351072184 11.901103122696155 1.3908670663333171 -2.6544555686032516 -0.598037560054957 2.96351977952794 16.393008208892773 -1.961585929088516 0.0 0.0 0.0 3.3371376435067943 0.5832736661158998 -3.8032544314147083 22.39351268599723 29.623005183808086 -60.262229335531856 7.340443391533937 -0.9379422917693006 -8.739678874384895 0.0 0.0 0.0 -12.303039321006931 -0.9719910302740595 -10.867805378083373 -12.262496988203658 24.109722565786427 51.77822143658286 -0.37850321111334156 -1.1026990277625461 14.437244998467241 0.0 0.0 0.0
256.75210600000037 192.23217799999958 1764.686279 -9.226856983623225 -36.93109140440847 11.93742071884094 1.1821293497623586 -2.730445404486685 -0.5540419491328017 2.998961663736308 16.389640875115866 -1.982642753639008 0.0 0.0 0.0 3.272728575941608 0.57246688609468 -3.7573464098928606 22.36270009658794 29.661835820651316 -60.413363868791144 7.347064846327159 -0.9433363036006895 -8.66935680607304 0.0 0.0 0.0 -12.313932351441542 -0.9804119745335563 -10.939030436275749 -12.235479921820707 24.10647686811236 51.841357236194 -0.3666273407255206 -1.0985348842521 14.39961944796266 0.0 0.0 0.0
256.83825700000034 192.11880499999958 1764.628662 -9.261371477933238 -37.04364724256999 11.7926565889865 1.2615729508212117 -2.6653936933074376 -0.5670193434217773 2.9394479167601597 16.358204932213475 -1.9474138878635645 0.0 0.0 0.0 3.3892863580996058 0.5572156275323149 -3.4773242208329966 22.224102424641075 29.600465444181584 -60.63797628147258 7.356042295103395 -0.9461150270028446 -8.644217772914319 0.0 0.0 0.0 -12.287365877844486 -0.9624660673042358 -10.78966548259255 -12.245589229421084 24.112746726856916 51.827564614628244 -0.3896562486224573 -1.1005350213069416 14.382972995349137 0.0 0.0 0.0
256.96301300000033 192.10412599999958 1764.5625 -9.152406551384749 -36.912761068802524 11.492886788221162 1.2881658481808211 -2.858745714905565 -0.5939874662140402 2.828549718880579 16.347475809697904 -1.8815749148529493 0.0 0.0 0.0 3.4297949403089474 0.536385375668199 -3.220069763153857 22.190351003517694 29.58822913167734 -60.69813608611369 7.359978013622496 -0.9516525660570667 -8.566592967214588 0.0 0.0 0.0 -12.259658724982513 -0.9373161532645974 -10.57195071168841 -12.237165718267507 24.119793631867807 51.86293333536486 -0.42437332742144795 -1.1024903676167606 14.341965937655758 0.0 0.0 0.0
256.98657200000036 191.95146199999957 1764.580933 -9.448767338981238 -37.11139958810391 11.796589863510773 1.4046291994246243 -2.6951171901978976 -0.6057821345954704 2.9400515490116517 16.35944112611378 -1.9477681280133103 0.0 0.0 0.0 3.355890531569845 0.5643742045909188 -3.5861050093918005 22.2508443958213 29.562042355652196 -60.49731488090598 7.3098378859271165 -0.9434261609760807 -8.593892164021776 0.0 0.0 0.0 -12.321999613072734 -0.9630256672395652 -10.768276744675628 -12.192675491719259 24.096972809306198 51.93302483340719 -0.3906603235089655 -1.0945928282570592 14.293203202154725 0.0 0.0 0.0
257.0369570000003 191.8307649999996 1764.592041 -9.428627035107523 -37.132152675716014 11.811743233546812 1.361122706863722 -2.723767143806903 -0.5979755122115551 2.9512562217614264 16.347140577757354 -1.9544667513777458 0.0 0.0 0.0 3.319839401757151 0.5649398946911932 -3.6291607003638293 22.251402539042513 29.562682840176304 -60.49717025089509 7.2565432892349016 -0.9361327151635879 -8.600638450231875 0.0 0.0 0.0 -12.330889125265672 -0.966484018983605 -10.79413670739118 -12.172111389067666 24.097543109664297 51.98711369251873 -0.3894721213172313 -1.0923677478652378 14.262752105365172 0.0 0.0 0.0
257.06860400000033 191.75259399999956 1764.583618 -9.439356310129568 -37.17610048121176 11.829373349754825 1.3396785470193684 -2.726193252307264 -0.5928842131324282 2.9463767544352106 16.34175460806669 -1.9515871188533342 0.0 0.0 0.0 3.2685156597075764 0.5619188651930127 -3.6506283961305495 22.275069904034076 29.59475764892559 -60.50055208449311 7.257572645458166 -0.9406310517048336 -8.532341570237195 0.0 0.0 0.0 -12.364832953908236 -0.9706716684936367 -10.807533383590137 -12.12860330011327 24.088102816503085 52.08095447509606 -0.38088749627465796 -1.086405975242469 14.192190063402895 0.0 0.0 0.0
257.1295780000003 191.67674299999956 1764.585815 -9.492678936742982 -37.23189703258316 11.879045590224235 1.3508077690087563 -2.7164511314359983 -0.5946292406336748 2.962978104350257 16.352059978946524 -1.9614121312061406 0.0 0.0 0.0 3.48605609599664 0.5800245197022612 -3.6157371579239213 22.0592512016924 29.403608691769215 -60.66695387766403 7.307763986758079 -0.9473834460409377 -8.528268889462064 0.0 0.0 0.0 -12.376019666835097 -0.9731432149560209 -10.822208053804388 -12.164859591719004 24.128304209622673 52.06560688022043 -0.3112462968971136 -1.0790882729161617 14.225341275092411 0.0 0.0 0.0
257.19986000000034 191.58404499999958 1764.536011 -9.494678606945493 -37.31631553872678 11.838089593356756 1.3528074906135346 -2.66915108630738 -0.5901229342793012 2.9407599540142173 16.33545839390613 -1.9482722981383052 0.0 0.0 0.0 3.3986584665332362 0.558871158430876 -3.485075964900076 22.11025572687007 29.51972869408946 -60.76493352347662 7.276396473047494 -0.9464981149988189 -8.478785413941496 0.0 0.0 0.0 -12.360959587844514 -0.9682838532531755 -10.788001907846787 -12.12281504436505 24.097869826262915 52.114888074427526 -0.3917377380139071 -1.0861221008503434 14.165947392005403 0.0 0.0 0.0
257.25790400000034 191.50506599999957 1764.509888 -9.535721007143776 -37.422029579928 11.91013237635739 1.3537463257125 -2.4931317103621167 -0.5717230762414351 2.9501223444229243 16.08798785155695 -1.9547068892260628 0.0 0.0 0.0 2.650967073044565 0.5338373005549613 -4.018096915935205 22.719035256319263 29.949249117254638 -60.091827709685376 7.061935340062499 -0.9160154430577043 -8.521426601744608 0.0 0.0 0.0 -11.995685776749083 -0.930063793656545 -10.70551218509428 -12.516364068875292 24.407512719896356 51.70633781452822 -0.37908391234152183 -1.092336567682736 14.283277976034887 0.0 0.0 0.0
